<svg className="logo-svg logo" fill="#50fa7b" viewBox="0 0 573 147" version="1.1" xmlns="http://www.w3.org/2000/svg" xmlns:xlink="http://www.w3.org/1999/xlink">
<!-- Generator: Sketch 3.7.2 (28276) - http://www.bohemiancoding.com/sketch -->
<g className="logo-svg__group">
  <rect x="168" y="16" width="22" height="20"></rect>
  <rect x="168" y="47" width="22" height="92"></rect>
  <rect x="205" y="47" width="22" height="92"></rect>
  <path d="M412,60 C405,49.7 393.9,44.1 381.4,44.1 C368,44.1 356.6,49.2 347.4,60 C339,69.6 335.7,80.2 335.7,92.9 C335.7,105.7 339.8,117.6 347.1,126.3 C355,135.7 366.5,141.7 380.7,141.7 C392.3,141.7 405,135.7 412,126.3 L412,139 L433,139 L433,47 L412,47 L412,60 L412,60 Z M384.8,120.3 C369.9,120.5 357.6,108.9 357.6,93.8 C357.6,77.7 368.8,65.5 385.1,65.7 C400.7,65.5 411.6,77.5 411.6,92.9 C411.6,108.5 400.7,120.4 384.8,120.3 L384.8,120.3 Z"></path>
  <rect x="445" y="16" width="22" height="123"></rect>
  <path d="M553,47 L553,60 C546,49.7 534.8,44.1 522.3,44.1 C508.9,44.1 497.5,49.2 488.2,60 C479.7,69.6 476.5,80.2 476.5,92.9 C476.5,105.7 480.7,117.6 487.9,126.3 C495.9,135.7 507.4,141.7 521.6,141.7 C533.2,141.7 546,135.7 553,126.3 L553,139 L573,139 L573,47 L553,47 L553,47 Z M525.6,120.3 C510.7,120.5 498.4,108.9 498.4,93.8 C498.4,77.7 509.6,65.5 525.9,65.7 C541.5,65.5 552.4,77.5 552.4,92.9 C552.5,108.5 541.6,120.4 525.6,120.3 L525.6,120.3 Z"></path>
  <rect x="205" y="16" width="22" height="20"></rect>
  <polygon points="321 16 299 16 299 47 290 47 290 67 299 67 299 139 321 139 321 67 334 67 334 47 321 47"></polygon>
  <polygon points="268 16 246 16 246 47 237 47 237 67 246 67 246 139 268 139 268 67 281 67 281 47 268 47"></polygon>
  <path className="logo-svg__i" d="M73.3,0.3 C33.1,0.3 0.5,32.9 0.5,73.2 C0.5,113.4 33.1,146 73.3,146 C113.6,146 146.2,113.4 146.2,73.2 C146.2,33 113.6,0.3 73.3,0.3 L73.3,0.3 Z M92,129 L55,129 L55,59 L92,59 L92,129 L92,129 Z M92,47 L55,47 L55,16 L92,16 L92,47 L92,47 Z"></path>
</g>
</svg>
